<svg xmlns="http://www.w3.org/2000/svg" viewBox="0 0 418 97"><path d="M88.9 35.8c-0.5-1.4-1.2-2.7-2-3.8 -0.8-1.1-1.8-2-2.8-2.7 -0.5-0.4-1-0.7-1.6-1 -0.5-0.3-1.1-0.5-1.6-0.7 -1.1-0.4-2.2-0.7-3.3-0.9 -2.2-0.4-4.4-0.4-6.6-0.1 -2.2 0.3-4.3 0.9-6.4 1.7 -2.1 0.8-4.1 1.9-6.1 3.1 -3.2 2.1-6.2 4.7-8.9 7.8 -1.1-0.9-2.2-1.8-3.3-2.8 1.1-1.1 2.2-2.2 3.2-3.3 0.6-0.6 1.1-1.2 1.6-1.8 0.5-0.6 1.1-1.3 1.6-1.9 2.1-2.6 4-5.3 5.8-8.3 0.9-1.5 1.7-3 2.4-4.7 0.4-0.8 0.7-1.7 1-2.5 0.3-0.9 0.5-1.8 0.6-2.7 -0.3 0.9-0.6 1.7-1 2.4 -0.4 0.8-0.8 1.5-1.2 2.2 -0.4 0.7-0.9 1.4-1.4 2.1 -0.5 0.7-0.9 1.3-1.4 2 -2 2.6-4.1 5-6.2 7.3 -0.5 0.6-1.1 1.1-1.6 1.7 -0.5 0.6-1.1 1.1-1.6 1.7 -1.1 1.1-2.2 2.1-3.4 3.2 -0.3 0.3-0.5 0.5-0.8 0.7 -0.5-0.4-1-0.8-1.5-1.3 -0.9-0.7-1.8-1.5-2.8-2.2 -0.9-0.7-1.9-1.5-2.8-2.2 -0.5-0.3-1-0.7-1.4-1 -0.5-0.3-1-0.7-1.5-1 -2-1.3-4.1-2.4-6.3-3.3 -2.2-0.9-4.4-1.5-6.7-1.8 -2.3-0.2-4.7-0.1-6.9 0.6 -0.6 0.2-1.1 0.4-1.7 0.7 -0.6 0.3-1.1 0.6-1.6 0.9 -1.1 0.7-2.1 1.6-3 2.6 -0.9 1.1-1.7 2.3-2.2 3.7 -0.6 1.4-1 2.9-1.1 4.5 -0.1 0.8-0.1 1.6 0 2.3 0 0.8 0.1 1.5 0.3 2.2 0.3 1.5 1 3.6 1.8 4.6 0 0 0 0 0.1 0 0 0 0 0 0 0 0.5 1 2.9 3.2 4.2 4.1 0.6 0.5 1.3 0.9 2 1.3 0.7 0.4 1.4 0.7 2.1 0.9 0.7 0.2 1.4 0.4 2.1 0.6 0.7 0.1 1.5 0.2 2.2 0.3 0.7 0 1.5 0 2.2 0 0.7 0 1.5-0.1 2.2-0.3 0.7-0.1 1.4-0.3 2.1-0.5 0.7-0.2 1.4-0.4 2.1-0.6 1.4-0.5 2.8-1.1 4.1-1.7 2.7-1.3 5.3-3 7.8-4.8 1-0.8 2.1-1.6 3.1-2.4l0.4 0.3c1.2 1 2.4 2 3.6 3 -0.1 0.2-0.3 0.4-0.4 0.5 -0.8 1-1.5 2.1-2.2 3.3 -0.7 1.2-1.3 2.4-1.8 3.7 -0.5 1.3-0.9 2.8-1.2 4.3 -0.2 1.5-0.3 3-0.2 4.6 0.1 1.5 0.4 3 0.9 4.4 0.5 1.4 1.1 2.7 1.8 3.8 0.7 1.1 1.5 2.2 2.3 3.1 1.7 1.8 3.5 3.3 5.4 4.4 1.9 1.1 3.9 2 6 2.6 1 0.3 2.1 0.6 3.1 0.7 1 0.2 2.1 0.3 3.1 0.4 2.1 0.2 4.1 0.1 6.2-0.2 -4.1 0.1-8.2-0.6-12.1-2.1 -1.9-0.8-3.8-1.8-5.6-3 -0.9-0.6-1.7-1.3-2.6-2 -0.8-0.7-1.6-1.6-2.3-2.5 -0.7-0.9-1.4-1.9-1.9-2.9 -0.6-1-1-2.1-1.3-3.3 -0.3-1.2-0.5-2.4-0.6-3.6 0-1.2 0.1-2.4 0.3-3.6 0.2-1.2 0.6-2.3 1.1-3.4 0.5-1.1 1-2.1 1.6-3.1 0.6-1 1.3-1.9 2-2.8 0.3-0.4 0.7-0.8 1.1-1.2 1.7 1.3 3.3 2.6 5 3.8 1 0.7 1.9 1.4 2.9 2 1 0.7 2 1.3 3 1.9 1 0.6 2 1.2 3.1 1.7 1 0.5 2.1 1 3.2 1.4 2.2 0.8 4.4 1.4 6.7 1.6 1.2 0.1 2.3 0 3.5-0.2 0.6-0.1 1.2-0.2 1.7-0.4 0.6-0.2 1.1-0.4 1.7-0.7 0.6-0.3 1.1-0.6 1.6-0.9 0.5-0.3 1-0.7 1.5-1.2 0.5-0.4 0.9-0.9 1.4-1.4 0.4-0.5 0.8-1 1.2-1.5 1.5-2.1 2.8-4.6 3.7-7.1 0.5-1.2 0.7-2.7 0.8-4.1 0-0.7 0-1.5-0.1-2.3C89.3 37.3 89.1 36.5 88.9 35.8zM37.5 39.2c-2.4 1.8-4.8 3.4-7.3 4.8 -1.3 0.7-2.5 1.3-3.8 1.9 -0.6 0.3-1.3 0.5-1.9 0.8 -0.6 0.2-1.3 0.5-2 0.6 -2.6 0.7-5.3 1.1-8 0.6 -1.3-0.2-2.7-0.6-3.9-1.3 -1-0.5-4.2-3.5-4.2-3.5 -0.8-1.4-1.3-3.2-1.4-4.4 0-0.7 0-1.4 0-2 0.1-0.7 0.2-1.3 0.3-1.9 0.2-0.6 0.3-1.2 0.6-1.8 0.2-0.6 0.5-1.1 0.8-1.6 0.6-1 1.3-1.9 2.1-2.6 0.8-0.7 1.7-1.3 2.6-1.7 0.9-0.4 1.9-0.7 2.8-0.9 1.9-0.3 3.9-0.2 5.9 0.2 2 0.4 3.9 1.2 5.8 2.1 1.9 0.9 3.8 2.1 5.6 3.4 1.8 1.3 3.6 2.7 5.5 4.2 0.8 0.6 1.5 1.2 2.3 1.8C38.6 38.3 38.1 38.8 37.5 39.2zM84.2 50.3c-0.4 0.4-0.8 0.8-1.3 1.2 -0.4 0.4-0.9 0.7-1.3 1 -0.5 0.3-0.9 0.5-1.4 0.8 -0.5 0.2-1 0.4-1.4 0.5 -1.9 0.6-3.9 0.6-5.9 0.2 -2-0.4-3.9-1.2-5.8-2.2 -1.9-1-3.8-2.1-5.7-3.4 -0.9-0.6-1.8-1.3-2.8-2 -0.9-0.7-1.8-1.4-2.7-2.1 -1-0.8-1.9-1.5-2.9-2.3 2.4-1.9 4.9-3.6 7.5-5 1.8-1 3.6-1.9 5.5-2.6 1.9-0.7 3.8-1.3 5.7-1.6 1.9-0.4 3.8-0.5 5.7-0.5 0.9 0 1.9 0.2 2.8 0.3 0.5 0.1 0.9 0.2 1.4 0.4 0.5 0.1 0.9 0.3 1.3 0.5 0.9 0.4 1.7 0.9 2.5 1.5 0.8 0.6 1.5 1.4 2 2.3 0.3 0.5 0.5 1 0.7 1.5 0.2 0.6 0.4 1.1 0.5 1.8 0.2 1 0.4 2.6 0.1 3.9C87.2 46.8 85.9 48.7 84.2 50.3z"/><polygon points="113.1 48.9 130 48.9 130 46.2 115.9 46.2 115.9 31.6 130 31.6 130 28.8 115.9 28.8 115.9 17.4 130 17.4 130 14.7 113.1 14.7 "/><path d="M151.7 30.9c-1.1-0.6-2.4-1.3-3.8-2 -2.3-1-3.8-1.9-4.6-2.5 -1.3-1.1-1.9-2.4-1.9-3.9 0-1.7 0.6-3 1.8-4 1.1-1 2.6-1.4 4.3-1.4 1.7 0 3 0.3 4.1 1 0.8 0.5 1.5 1.2 2.1 2.2l0.2 0.3 2.6-1.1 -0.2-0.4c-1.7-3.1-4.6-4.6-8.7-4.6 -2.5 0-4.6 0.8-6.3 2.3 -1.7 1.5-2.6 3.5-2.6 5.9 0 2.4 0.9 4.4 2.6 5.9 1 0.9 2.8 2 5.5 3.2 1.4 0.6 2.5 1.2 3.4 1.7 0.9 0.5 1.5 0.9 1.9 1.3 1.6 1.4 2.4 3.1 2.4 5.2 0 2.2-0.7 3.9-2 5 -1.3 1.1-3.1 1.7-5.4 1.7 -4 0-6.5-1.9-7.6-5.7l-0.1-0.4 -2.7 0.9 0.1 0.4c1.5 5 5 7.6 10.3 7.6 1.7 0 3.2-0.2 4.5-0.7 3.8-1.4 5.7-4.3 5.7-8.8 0-2.7-0.9-5.1-2.8-6.9C153.7 32.3 152.8 31.6 151.7 30.9z"/><path d="M181.9 17c-1.8-1.6-4.1-2.3-6.7-2.3h-8.6v34.3h2.7V32.2h5.9c2.7 0 4.9-0.8 6.7-2.4 1.8-1.6 2.8-3.7 2.8-6.4C184.6 20.7 183.7 18.6 181.9 17zM169.3 17.4h5.8c2 0 3.6 0.5 4.8 1.5 1.4 1.1 2 2.6 2 4.5 0 1.9-0.6 3.4-1.9 4.5 -1.3 1.1-2.9 1.6-4.9 1.6h-5.8V17.4z"/><polygon points="195.4 48.9 212.3 48.9 212.3 46.2 198.1 46.2 198.1 31.6 212.3 31.6 212.3 28.8 198.1 28.8 198.1 17.4 212.3 17.4 212.3 14.7 195.4 14.7 "/><path d="M251.7 41.9l-0.6 0.5c-1.8 1.3-3.3 2.3-4.4 2.8 -2 1-4.4 1.5-7.1 1.5 -4.3 0-7.9-1.4-10.7-4.2 -2.7-2.7-4.1-6.3-4.1-10.7 0-4.3 1.4-7.9 4.2-10.7 2.8-2.8 6.4-4.2 10.7-4.2 2.5 0 5 0.5 7.3 1.4 1.5 0.6 2.9 1.5 4.2 2.6l0.7 0.6v-3.4l-0.1-0.1c-1.3-1-2.7-1.8-4.1-2.4 -2.3-0.9-5-1.3-7.9-1.3 -5.1 0-9.4 1.7-12.7 4.9 -3.2 3.3-4.9 7.5-4.9 12.7 0 5.2 1.7 9.4 4.9 12.7 3.3 3.3 7.5 4.9 12.7 4.9 0.4 0 0.9 0 1.3 0 0.4 0 0.8 0 1.2-0.1 3.1-0.3 5.5-1.1 7.3-2.4l2.4-1.8V41.9z"/><rect x="260.7" y="14.7" width="2.7" height="34.3"/><polygon points="273.7 48.9 276.4 48.9 276.4 31.5 289.1 31.5 289.1 28.8 276.4 28.8 276.4 17.4 289.1 17.4 289.1 14.7 273.7 14.7 "/><rect x="299.4" y="14.7" width="2.7" height="34.3"/><path d="M337.3 15.5c-2.3-0.9-5-1.3-7.9-1.3 -5.1 0-9.4 1.7-12.7 4.9 -3.2 3.3-4.9 7.5-4.9 12.7 0 5.2 1.7 9.4 4.9 12.7 3.3 3.3 7.5 4.9 12.7 4.9 0.4 0 0.9 0 1.3 0 0.4 0 0.8 0 1.2-0.1 3.1-0.3 5.5-1.1 7.3-2.4l2.4-1.8v-3.2l-0.6 0.5c-1.8 1.3-3.3 2.3-4.4 2.8 -2 1-4.4 1.5-7.1 1.5 -4.3 0-7.9-1.4-10.7-4.2 -2.7-2.7-4.1-6.3-4.1-10.7 0-4.3 1.4-7.9 4.2-10.7 2.8-2.8 6.4-4.2 10.7-4.2 2.5 0 5 0.5 7.3 1.4 1.5 0.6 2.9 1.5 4.2 2.6l0.7 0.6v-3.4l-0.1-0.1C340.1 16.8 338.8 16 337.3 15.5z"/><path d="M382.5 31.8c0-5.1-1.7-9.4-4.9-12.7 -3.3-3.2-7.6-4.9-12.7-4.9 -5.1 0-9.4 1.7-12.7 4.9 -3.2 3.3-4.9 7.5-4.9 12.7 0 5.2 1.7 9.4 4.9 12.7 3.3 3.3 7.5 4.9 12.7 4.9 5.2 0 9.4-1.7 12.7-4.9C380.8 41.2 382.5 37 382.5 31.8zM364.9 46.7c-4.3 0-7.9-1.4-10.7-4.2 -2.7-2.7-4.1-6.3-4.1-10.7 0-4.3 1.4-7.9 4.2-10.7 2.8-2.8 6.4-4.2 10.7-4.2 4.4 0 8 1.4 10.8 4.2 2.8 2.8 4.2 6.4 4.2 10.7 0 4.4-1.4 8-4.1 10.8C372.8 45.3 369.2 46.7 364.9 46.7z"/><path d="M405.8 48.6c3.8-1.4 5.7-4.3 5.7-8.8 0-2.7-0.9-5.1-2.8-6.9 -0.7-0.7-1.6-1.3-2.6-2 -1.1-0.6-2.4-1.3-3.8-2 -2.3-1-3.8-1.9-4.6-2.5 -1.3-1.1-1.9-2.4-1.9-3.9 0-1.7 0.6-3 1.8-4 1.1-1 2.6-1.4 4.3-1.4 1.7 0 3 0.3 4.1 1 0.8 0.5 1.5 1.2 2.1 2.2l0.2 0.3 2.6-1.1 -0.2-0.4c-1.7-3.1-4.6-4.6-8.7-4.6 -2.5 0-4.6 0.8-6.3 2.3 -1.7 1.5-2.6 3.5-2.6 5.9 0 2.4 0.9 4.4 2.6 5.9 1 0.9 2.8 2 5.5 3.2 1.4 0.6 2.5 1.2 3.4 1.7 0.9 0.5 1.5 0.9 1.9 1.3 1.6 1.4 2.4 3.1 2.4 5.2 0 2.2-0.7 3.9-2 5 -1.3 1.1-3.1 1.7-5.4 1.7 -4 0-6.5-1.9-7.6-5.7l-0.1-0.4 -2.7 0.9 0.1 0.4c1.5 5 5 7.6 10.3 7.6C403.1 49.3 404.5 49.1 405.8 48.6z"/><path d="M121.9 71c0.7-0.3 2.2-1.3 2.2-3.4 0-1.9-1.3-4.1-5.1-4.1h-6.1v0.8h0.1c0.9 0 1.4 0.4 1.4 1.4V78c0 0.9-0.4 1.4-1.3 1.4h-0.1v0.8h6.6c4.1 0 5.6-2.6 5.6-4.8C125.1 72.3 122.9 71.3 121.9 71zM118.5 64.2c1.9 0 3.8 1.2 3.8 3.3 0 2.2-2.2 3.3-3.8 3.3h-2.3v-6.7H118.5zM116.2 71.7H118c3.2 0 5.3 0.7 5.3 3.8 0 2.1-1.6 3.8-3.6 3.8h-2.2c-0.9 0-1.3-0.4-1.3-1.3V71.7z"/><path d="M149.7 64.2h0.1c0.9 0 1.4 0.4 1.4 1.4v7.9c0 3.8-1.7 5.8-4.8 5.8 -3.1 0-4.8-2.1-4.8-5.8V65.6c0-0.9 0.4-1.3 1.4-1.3H143v-0.8h-4.7v0.8h0.1c0.9 0 1.4 0.4 1.4 1.4v7.9c0 4.3 2.3 6.6 6.6 6.6 3.5 0 5.6-2.4 5.6-6.3V65.6c0-0.9 0.4-1.3 1.4-1.3h0.1v-0.8h-3.7V64.2z"/><path d="M179.5 75c0 0-0.5 4.4-3.1 4.4h-5c-0.9 0-1.3-0.4-1.3-1.3v-6.3h3.8c1.2 0 1.4 0.5 1.4 0.9v0.6h0.8v-3.7h-0.8v0.6c0 0.9-1.3 0.9-1.3 0.9h-3.8v-6.7h4.8c3.3 0 3.8 2.8 3.8 2.9l0 0.1h0.8l-1.1-3.7h-11.6v0.8h0.1c0.9 0 1.4 0.4 1.4 1.4V78c0 0.9-0.4 1.4-1.3 1.4h-0.1v0.8h12.9l0.5-5.2h-0.8L179.5 75z"/><path d="M205.4 64.2h0.1c0.9 0 1.4 0.4 1.4 1.4v10.9l-9.2-13 0-0.1h-3.6v0.8h0.1c0.9 0 1.4 0.4 1.4 1.4V78c0 0.9-0.4 1.4-1.3 1.4h-0.1v0.8h3.7v-0.8h-0.1c-0.9 0-1.3-0.4-1.3-1.3V65.1l10.7 15h0.7V65.6c0-0.9 0.4-1.3 1.4-1.3h0.1v-0.8h-3.7V64.2z"/><path d="M229.6 63.5c-3.8 0-7.6 2.6-7.6 8.3 0 5.8 3.8 8.3 7.6 8.3 4.7 0 7.6-3.1 7.6-8.3C237.1 66.6 234.3 63.5 229.6 63.5zM229.6 79.4c-3.5 0-5.7-3-5.7-7.6 0-4.6 2.2-7.6 5.7-7.6 3.5 0 5.7 3 5.7 7.6C235.3 76.4 233 79.4 229.6 79.4z"/><path d="M257 70.5c-2.4-0.6-4.4-1.1-4.4-3.2 0-2 2-3.1 3.8-3.1 3.2 0 4.8 2.1 4.8 4.1v0.1h0.8v-5h-0.8v0.1c0 1.4-0.2 1.4-0.3 1.4 -0.1 0-0.2-0.1-0.4-0.2 -0.5-0.4-1.5-1.2-4.1-1.2 -2.7 0-5.6 1.3-5.6 4.1 0 2.9 2.7 3.6 5.3 4.4 2.6 0.8 5.1 1.5 5.1 4.1 0 2.1-2.5 3.3-4.8 3.3 -2.1 0-5.3-1.9-5.3-4.3v-0.1h-0.8v5.2h0.8v-0.1c0-1 0.2-1.3 0.4-1.3 0.1 0 0.3 0.1 0.6 0.3 0.8 0.4 2.2 1.2 4.4 1.2 4.6 0 6.6-1.3 6.6-4.3C263 72 259.8 71.2 257 70.5z"/><path d="M310.4 78.6c-0.4-0.8-6.7-15-6.7-15l0-0.1H303l0 0.1c-0.2 0.6-6.1 14.8-6.3 15.3 -0.2 0.4-0.4 0.6-0.8 0.6 -0.4 0-0.5 0-0.4 0l-0.2-0.1v0.8h3.6v-0.6l0-0.1h-0.7c-0.2 0-0.4 0-0.5-0.1 0-0.1-0.1-0.2 0.1-0.7 0.3-0.8 1.6-3.7 1.8-4.3h6.9c0.2 0.6 1.7 3.8 1.9 4.2 0.1 0.3 0.3 0.7 0.3 0.8 0 0 0 0-0.2 0h-0.8v0.7h4.3v-0.7h-0.4C310.9 79.4 310.7 79.4 310.4 78.6zM306.2 73.6h-6.3l3.1-7.4L306.2 73.6z"/><path d="M325.3 64.2h0.1c0.9 0 1.4 0.4 1.4 1.4V78c0 0.9-0.4 1.4-1.3 1.4h-0.1v0.8h4.7v-0.8h-0.1c-0.9 0-1.3-0.4-1.3-1.3V65.6c0-0.9 0.4-1.3 1.4-1.3h0.1v-0.8h-4.7V64.2z"/><path d="M354.9 77.3c0-2.9-1.8-5-3-5.6 1.8-0.3 3-1.8 3-4 0-1-0.3-4.1-4.8-4.1h-6.4v0.8h0.1c0.9 0 1.4 0.4 1.4 1.4V78c0 0.9-0.4 1.4-1.3 1.4h-0.1v0.8h4.7v-0.8h-0.1c-0.9 0-1.3-0.4-1.3-1.3v-6.3h0.9c3.5 0 5.3 3.7 5.3 5.8 0 2.1 1.3 2.6 1.3 2.6l2.9 0v-0.8h-0.6C355.9 79.4 354.9 78.5 354.9 77.3zM347 64.2h2.4c1.8 0 3.8 0.6 3.8 3.3 0 3.1-2.9 3.3-3.8 3.3h-2.3V64.2z"/><path d="M383.5 75c0 0-0.5 4.4-3.1 4.4h-5c-0.9 0-1.3-0.4-1.3-1.3v-6.3h3.8c1.2 0 1.4 0.5 1.4 0.9v0.6h0.8v-3.7h-0.8v0.6c0 0.9-1.3 0.9-1.3 0.9h-3.8v-6.7h4.8c3.3 0 3.8 2.8 3.8 2.9l0 0.1h0.8l-1.1-3.7h-11.6v0.8h0.1c0.9 0 1.4 0.4 1.4 1.4V78c0 0.9-0.4 1.4-1.3 1.4h-0.1v0.8h12.9l0.5-5.2h-0.8L383.5 75z"/><path d="M404.4 70.5c-2.4-0.6-4.4-1.1-4.4-3.2 0-2 2-3.1 3.8-3.1 3.2 0 4.8 2.1 4.8 4.1v0.1h0.8v-5h-0.8v0.1c0 1.4-0.2 1.4-0.3 1.4 -0.1 0-0.2-0.1-0.4-0.2 -0.5-0.4-1.5-1.2-4.1-1.2 -2.7 0-5.6 1.3-5.6 4.1 0 2.9 2.7 3.6 5.3 4.4 2.6 0.8 5.1 1.5 5.1 4.1 0 2.1-2.5 3.3-4.8 3.3 -2.1 0-5.3-1.9-5.3-4.3v-0.1h-0.8v5.2h0.8v-0.1c0-1 0.2-1.3 0.4-1.3 0.1 0 0.3 0.1 0.6 0.3 0.8 0.4 2.2 1.2 4.4 1.2 4.6 0 6.6-1.3 6.6-4.3C410.4 72 407.2 71.2 404.4 70.5z"/><rect x="98.9" y="2.9" width="1.7" height="91.1"/></svg>
